<svg width="164" height="35" viewBox="0 0 164 35" fill="none" xmlns="http://www.w3.org/2000/svg">
<g opacity="0.5">
<path d="M24.1135 0V34.2479H34.2604V7.61092L24.1135 0ZM20.0944 3.00478V34.2479H22.2043V1.40266L20.0944 3.00478ZM16.0757 34.2479H18.1853V4.50679L16.0757 6.00854V34.2479ZM12.0566 34.2479H14.1665V7.51132L12.0566 9.11344V34.2479ZM36.1693 15.3217V34.2479H46.3183V22.9321L36.1693 15.3217ZM8.03757 18.326V34.2479H10.1477V16.8237L8.03757 18.326ZM4.01879 34.2479H6.12868V19.8282L4.01879 21.3305V34.2479ZM0 34.2479H2.10989V22.832L0 24.4344V34.2479Z" fill="#A8A8A8"/>
<path d="M72.4342 19.0395C69.423 19.0395 67.5138 17.3372 67.5138 14.0326V7.62359H70.0232V14.0326C70.0232 15.8347 70.9286 16.8364 72.5358 16.8364C74.0414 16.8364 74.9468 15.835 74.9468 14.0326V7.62359H77.4595V13.9325C77.4595 17.4373 75.4487 19.0395 72.4342 19.0395ZM84.8923 19.0395C83.1867 19.0395 81.4778 18.4388 80.1722 17.2374L81.5795 15.5349C82.5832 16.3358 83.6886 16.8364 84.9942 16.8364C85.9979 16.8364 86.6012 16.4359 86.6012 15.835V15.7348C86.6012 15.1341 86.2012 14.8335 84.2921 14.333C82.0813 13.7323 80.5724 13.0312 80.5724 10.8284C80.5724 8.72513 82.1794 7.42362 84.4923 7.42362C86.2013 7.42362 87.6052 7.9242 88.7106 8.82525L87.405 10.728C86.5031 10.0269 85.4958 9.62644 84.4923 9.62644C83.5869 9.62644 83.085 10.0269 83.085 10.6276C83.085 11.3287 83.5869 11.6293 85.4958 12.1299C87.8088 12.7306 89.1141 13.532 89.1141 15.5349C89.1141 17.8375 87.405 19.0395 84.8923 19.0395ZM99.5614 18.9396V14.333H94.9396V18.9399H92.4303V7.62411H94.9396V12.03H99.5614V7.62359H102.074V18.9393L99.5614 18.9396ZM142.765 18.9396L137.441 11.8298V18.9396H135.03V7.62385H137.34L142.667 14.8335V7.62359H145.078V18.9393L142.765 18.9396ZM94.0376 34.2605L90.5212 29.4539L89.2158 30.8558V34.2605H86.7031V22.9448H89.2158V27.9516L93.8376 22.9448H96.8488L92.227 27.7517L97.0521 34.2605H94.0376ZM99.8631 34.2605V22.9448H108.303V25.1479H102.274V27.4513H107.601V29.6539H102.274V32.0574H108.405V34.2605H99.8631ZM123.976 34.2605H126.387V22.945H123.976V34.2605ZM130.107 34.2605V22.9448H138.547V25.1479H132.619V27.4513H137.841V29.6539H132.619V32.0574H138.645V34.2605H130.107ZM142.365 34.2605V22.9448H144.874V32.0574H150.503V34.2605H142.365ZM157.936 34.2605H153.514V22.9448H157.936C161.554 22.9448 163.965 25.4485 163.965 28.5526V28.6527C163.965 31.8572 161.554 34.2605 157.936 34.2605ZM161.354 28.6527C161.354 26.6499 159.947 25.248 157.936 25.248H156.027V32.0574H157.936C159.947 32.0574 161.354 30.6556 161.354 28.6527ZM60.1794 16.8364C58.0667 16.8364 56.663 15.2345 56.663 13.3315V13.2314C56.663 11.3287 57.9683 9.72656 59.9758 9.72656C61.0812 9.62644 62.0885 10.1273 62.7904 10.9282L64.3976 9.02548C63.2922 8.02432 61.7866 7.32324 59.9758 7.42362C56.4594 7.42362 53.9503 10.1273 54.0484 13.3315C54.1503 16.6361 56.663 19.1396 60.1794 19.0395C61.9866 19.0395 63.5939 18.2385 64.5976 17.0366L62.892 15.4345C62.2885 16.2357 61.2848 16.7363 60.1794 16.8364ZM114.732 7.62359H117.445V18.9393H115.034V11.5294L111.82 16.3361H111.721L108.503 11.5294V18.9399H106.194V7.62411H108.805L111.82 12.3306L114.732 7.62359ZM124.983 7.62359L120.158 18.9393H122.772L123.776 16.3358H128.598L129.605 18.9396H132.216L127.394 7.62385L124.983 7.62359ZM124.681 14.1327L126.187 10.5277L127.696 14.1327H124.681ZM76.7541 22.9445L71.9323 34.2605H74.445L75.5504 31.7571H80.2738L81.3759 34.2605H83.8885L79.0668 22.9448L76.7541 22.9445ZM76.3541 29.554L77.8595 25.8489L79.3687 29.554H76.3541ZM114.434 25.248V27.6513H119.758V29.9545H114.434V34.2605H111.921V22.9448H120.561V25.248H114.434ZM69.2197 22.9445L66.6084 30.8558L63.9977 22.9448H61.5831L58.9723 30.8558L56.3611 22.9448H53.6484L57.765 34.2605H60.2777L62.7904 26.5498L65.4011 34.2605H67.8124L71.9323 22.9448L69.2197 22.9445ZM160.951 16.1353L162.256 14.6336L160.751 13.0312L159.543 14.333L158.136 12.6307C159.042 12.1299 159.645 11.1284 159.645 10.1273C159.543 8.52516 158.34 7.42362 156.732 7.42362C155.929 7.42362 155.223 7.72397 154.722 8.22455C154.22 8.72513 153.918 9.42595 153.918 10.2274C154.02 11.1284 154.521 11.8298 154.922 12.3304C153.616 12.8309 152.612 14.2331 152.711 15.635C152.812 17.5372 154.42 19.1396 156.431 19.1396C157.536 19.1396 158.74 18.5389 159.543 17.6378L160.55 18.9393H163.463L160.951 16.1353ZM158.238 16.0352C157.634 16.736 157.034 17.0366 156.431 17.0366C155.627 17.0366 154.922 16.4359 154.922 15.5349C154.823 15.0338 155.223 14.333 156.329 13.8321L158.238 16.0352ZM156.831 11.3287C156.529 11.0283 156.129 10.6279 156.027 10.2274C156.027 9.82693 156.227 9.42595 156.831 9.32609C157.333 9.32609 157.634 9.72656 157.634 10.2271C157.634 10.7277 157.132 11.1282 156.831 11.3287Z" fill="#717271"/>
</g>
</svg>
