<svg xmlns="http://www.w3.org/2000/svg" viewBox="-4.9776 -23.1909 82.4109 82.4109">
	<style>
		rect { fill: none; }
		path { fill: #000; stroke: #000; }
		@media (prefers-color-scheme: dark) {
			rect { fill: #fff; }
		}
	</style>
	<rect x="-4.9776" y="-23.1909" width="82.4109" height="82.4109" rx="18.5"/>
	<path stroke-width="0.326969" d="M68.9702 18.1663C69.235 18.2011 69.2698 18.5708 69.016 18.654L47.539 25.6912C47.2916 25.772 47.1002 25.4693 47.2791 25.2802L55.5681 16.5199C55.6232 16.4616 55.7034 16.4333 55.783 16.4435L68.9702 18.1663Z"/>
	<path stroke-width="0.326969" d="M22.4929 23.8729C22.6605 23.7643 22.8823 23.8842 22.8824 24.0839L22.8823 30.2718C22.8823 30.3852 22.8059 30.4851 22.6964 30.5146L3.54372 35.6858C3.4026 35.7239 3.28762 35.6486 3.23673 35.5219C3.18587 35.3949 3.21658 35.26 3.34512 35.1895C7.63827 32.8342 15.4645 28.4286 22.4929 23.8729Z"/>
	<path stroke-width="0.326969" d="M24.8633 0.679396V29.252C24.8633 29.4968 25.1605 29.618 25.3317 29.443L39.2276 15.2347C39.331 15.129 39.3315 14.9602 39.2287 14.8539L25.3327 0.489496C25.162 0.313038 24.8633 0.433882 24.8633 0.679396Z"/>
	<path stroke-width="0.326969" d="M39.3477 0.671583V29.2442C39.3477 29.489 39.6449 29.6102 39.816 29.4352L53.712 15.2269C53.8154 15.1212 53.8159 14.9524 53.713 14.8461L39.8171 0.481682C39.6464 0.305225 39.3477 0.426067 39.3477 0.671583Z"/>
</svg>
